<svg width="72" height="56" viewBox="0 0 72 56" fill="none" xmlns="http://www.w3.org/2000/svg">
<rect x="1.12558" y="1.12558" width="8.14884" height="8.14884" stroke="black" stroke-opacity="0.24" stroke-width="2.25116"/>
<rect x="1.12558" y="1.12558" width="8.14884" height="8.14884" stroke="black" stroke-opacity="0.24" stroke-width="2.25116"/>
<rect x="16.3255" y="1.12558" width="8.14884" height="8.14884" stroke="black" stroke-opacity="0.24" stroke-width="2.25116"/>
<rect x="16.3255" y="1.12558" width="8.14884" height="8.14884" stroke="black" stroke-opacity="0.24" stroke-width="2.25116"/>
<rect x="31.5256" y="1.12558" width="8.14884" height="8.14884" stroke="black" stroke-opacity="0.24" stroke-width="2.25116"/>
<rect x="31.5256" y="1.12558" width="8.14884" height="8.14884" stroke="black" stroke-opacity="0.24" stroke-width="2.25116"/>
<rect x="46.7256" y="1.12558" width="8.14884" height="8.14884" stroke="black" stroke-opacity="0.24" stroke-width="2.25116"/>
<rect x="46.7256" y="1.12558" width="8.14884" height="8.14884" stroke="black" stroke-opacity="0.24" stroke-width="2.25116"/>
<rect x="61.9255" y="1.12558" width="8.14884" height="8.14884" stroke="black" stroke-opacity="0.24" stroke-width="2.25116"/>
<rect x="61.9255" y="1.12558" width="8.14884" height="8.14884" stroke="black" stroke-opacity="0.24" stroke-width="2.25116"/>
<rect x="1.12558" y="16.3256" width="8.14884" height="8.14884" stroke="black" stroke-opacity="0.24" stroke-width="2.25116"/>
<rect x="1.12558" y="16.3256" width="8.14884" height="8.14884" stroke="black" stroke-opacity="0.24" stroke-width="2.25116"/>
<rect x="16.3255" y="16.3256" width="8.14884" height="8.14884" stroke="black" stroke-opacity="0.24" stroke-width="2.25116"/>
<rect x="16.3255" y="16.3256" width="8.14884" height="8.14884" stroke="black" stroke-opacity="0.24" stroke-width="2.25116"/>
<rect x="31.5256" y="16.3256" width="8.14884" height="8.14884" stroke="black" stroke-opacity="0.24" stroke-width="2.25116"/>
<rect x="31.5256" y="16.3256" width="8.14884" height="8.14884" stroke="black" stroke-opacity="0.24" stroke-width="2.25116"/>
<rect x="46.7256" y="16.3256" width="8.14884" height="8.14884" stroke="black" stroke-opacity="0.24" stroke-width="2.25116"/>
<rect x="46.7256" y="16.3256" width="8.14884" height="8.14884" stroke="black" stroke-opacity="0.24" stroke-width="2.25116"/>
<rect x="61.9255" y="16.3256" width="8.14884" height="8.14884" stroke="black" stroke-opacity="0.24" stroke-width="2.25116"/>
<rect x="61.9255" y="16.3256" width="8.14884" height="8.14884" stroke="black" stroke-opacity="0.24" stroke-width="2.25116"/>
<rect x="1.12558" y="31.5256" width="8.14884" height="8.14884" stroke="black" stroke-opacity="0.24" stroke-width="2.25116"/>
<rect x="1.12558" y="31.5256" width="8.14884" height="8.14884" stroke="black" stroke-opacity="0.24" stroke-width="2.25116"/>
<rect x="16.3255" y="31.5256" width="8.14884" height="8.14884" stroke="black" stroke-opacity="0.24" stroke-width="2.25116"/>
<rect x="16.3255" y="31.5256" width="8.14884" height="8.14884" stroke="black" stroke-opacity="0.24" stroke-width="2.25116"/>
<rect x="31.5256" y="31.5256" width="8.14884" height="8.14884" stroke="black" stroke-opacity="0.24" stroke-width="2.25116"/>
<rect x="31.5256" y="31.5256" width="8.14884" height="8.14884" stroke="black" stroke-opacity="0.24" stroke-width="2.25116"/>
<rect x="46.7256" y="31.5256" width="8.14884" height="8.14884" stroke="black" stroke-opacity="0.24" stroke-width="2.25116"/>
<rect x="46.7256" y="31.5256" width="8.14884" height="8.14884" stroke="black" stroke-opacity="0.24" stroke-width="2.25116"/>
<rect x="61.9255" y="31.5256" width="8.14884" height="8.14884" stroke="black" stroke-opacity="0.24" stroke-width="2.25116"/>
<rect x="61.9255" y="31.5256" width="8.14884" height="8.14884" stroke="black" stroke-opacity="0.24" stroke-width="2.25116"/>
<rect x="1.12558" y="46.7256" width="8.14884" height="8.14884" stroke="black" stroke-opacity="0.24" stroke-width="2.25116"/>
<rect x="1.12558" y="46.7256" width="8.14884" height="8.14884" stroke="black" stroke-opacity="0.24" stroke-width="2.25116"/>
<rect x="16.3255" y="46.7256" width="8.14884" height="8.14884" stroke="black" stroke-opacity="0.24" stroke-width="2.25116"/>
<rect x="16.3255" y="46.7256" width="8.14884" height="8.14884" stroke="black" stroke-opacity="0.24" stroke-width="2.25116"/>
<rect x="31.5256" y="46.7256" width="8.14884" height="8.14884" stroke="black" stroke-opacity="0.24" stroke-width="2.25116"/>
<rect x="31.5256" y="46.7256" width="8.14884" height="8.14884" stroke="black" stroke-opacity="0.24" stroke-width="2.25116"/>
<rect x="46.7256" y="46.7256" width="8.14884" height="8.14884" stroke="black" stroke-opacity="0.24" stroke-width="2.25116"/>
<rect x="46.7256" y="46.7256" width="8.14884" height="8.14884" stroke="black" stroke-opacity="0.24" stroke-width="2.25116"/>
<rect x="61.9255" y="46.7256" width="8.14884" height="8.14884" stroke="black" stroke-opacity="0.24" stroke-width="2.25116"/>
<rect x="61.9255" y="46.7256" width="8.14884" height="8.14884" stroke="black" stroke-opacity="0.24" stroke-width="2.25116"/>
</svg>
