<svg width="367" height="83" viewBox="0 0 367 83" fill="none" xmlns="http://www.w3.org/2000/svg">
<g filter="url(#filter0_d_147_63)">
<mask id="path-1-outside-1_147_63" maskUnits="userSpaceOnUse" x="17" y="24" width="88" height="30" fill="black">
<rect fill="white" x="17" y="24" width="88" height="30"/>
<path d="M27.064 30.94H19.54V26.8H39.484V30.94H31.96V52H27.064V30.94ZM52.172 26.8H70.388V30.94H57.068V37.312H69.344V41.38H57.068V47.86H70.388V52H52.172V26.8ZM83.2727 48.112V44.512H88.0967V46.636L89.2847 47.824H96.7367L97.9607 46.6V42.424L96.7727 41.236H87.2327L83.3447 37.348V30.688L87.2327 26.8H98.6087L102.497 30.688V34.324H97.6727V32.164L96.4847 30.976H89.3567L88.1687 32.164V35.872L89.3567 37.06H98.8967L102.785 40.948V48.04L98.8247 52H87.1607L83.2727 48.112Z"/>
</mask>
<path d="M27.064 30.94H29.064V28.94H27.064V30.94ZM19.54 30.94H17.54V32.94H19.54V30.94ZM19.54 26.8V24.8H17.54V26.8H19.54ZM39.484 26.8H41.484V24.8H39.484V26.8ZM39.484 30.94V32.94H41.484V30.94H39.484ZM31.96 30.94V28.94H29.96V30.94H31.96ZM31.96 52V54H33.96V52H31.96ZM27.064 52H25.064V54H27.064V52ZM27.064 28.94H19.54V32.94H27.064V28.94ZM21.54 30.94V26.8H17.54V30.94H21.54ZM19.54 28.8H39.484V24.8H19.54V28.8ZM37.484 26.8V30.94H41.484V26.8H37.484ZM39.484 28.94H31.96V32.94H39.484V28.94ZM29.96 30.94V52H33.96V30.94H29.96ZM31.96 50H27.064V54H31.96V50ZM29.064 52V30.94H25.064V52H29.064ZM52.172 26.8V24.8H50.172V26.8H52.172ZM70.388 26.8H72.388V24.8H70.388V26.8ZM70.388 30.94V32.94H72.388V30.94H70.388ZM57.068 30.94V28.94H55.068V30.94H57.068ZM57.068 37.312H55.068V39.312H57.068V37.312ZM69.344 37.312H71.344V35.312H69.344V37.312ZM69.344 41.38V43.38H71.344V41.38H69.344ZM57.068 41.38V39.38H55.068V41.38H57.068ZM57.068 47.86H55.068V49.86H57.068V47.86ZM70.388 47.86H72.388V45.86H70.388V47.86ZM70.388 52V54H72.388V52H70.388ZM52.172 52H50.172V54H52.172V52ZM52.172 28.8H70.388V24.8H52.172V28.8ZM68.388 26.8V30.94H72.388V26.8H68.388ZM70.388 28.94H57.068V32.94H70.388V28.94ZM55.068 30.94V37.312H59.068V30.94H55.068ZM57.068 39.312H69.344V35.312H57.068V39.312ZM67.344 37.312V41.38H71.344V37.312H67.344ZM69.344 39.38H57.068V43.38H69.344V39.38ZM55.068 41.38V47.86H59.068V41.38H55.068ZM57.068 49.86H70.388V45.86H57.068V49.86ZM68.388 47.86V52H72.388V47.86H68.388ZM70.388 50H52.172V54H70.388V50ZM54.172 52V26.8H50.172V52H54.172ZM83.2727 48.112H81.2727V48.9404L81.8584 49.5262L83.2727 48.112ZM83.2727 44.512V42.512H81.2727V44.512H83.2727ZM88.0967 44.512H90.0967V42.512H88.0967V44.512ZM88.0967 46.636H86.0967V47.4644L86.6824 48.0502L88.0967 46.636ZM89.2847 47.824L87.8704 49.2382L88.4562 49.824H89.2847V47.824ZM96.7367 47.824V49.824H97.5651L98.1509 49.2382L96.7367 47.824ZM97.9607 46.6L99.3749 48.0142L99.9607 47.4284V46.6H97.9607ZM97.9607 42.424H99.9607V41.5956L99.3749 41.0098L97.9607 42.424ZM96.7727 41.236L98.1869 39.8218L97.6011 39.236H96.7727V41.236ZM87.2327 41.236L85.8184 42.6502L86.4042 43.236H87.2327V41.236ZM83.3447 37.348H81.3447V38.1764L81.9304 38.7622L83.3447 37.348ZM83.3447 30.688L81.9304 29.2738L81.3447 29.8596V30.688H83.3447ZM87.2327 26.8V24.8H86.4042L85.8184 25.3858L87.2327 26.8ZM98.6087 26.8L100.023 25.3858L99.4371 24.8H98.6087V26.8ZM102.497 30.688H104.497V29.8596L103.911 29.2738L102.497 30.688ZM102.497 34.324V36.324H104.497V34.324H102.497ZM97.6727 34.324H95.6727V36.324H97.6727V34.324ZM97.6727 32.164H99.6727V31.3356L99.0869 30.7498L97.6727 32.164ZM96.4847 30.976L97.8989 29.5618L97.3131 28.976H96.4847V30.976ZM89.3567 30.976V28.976H88.5282L87.9424 29.5618L89.3567 30.976ZM88.1687 32.164L86.7544 30.7498L86.1687 31.3356V32.164H88.1687ZM88.1687 35.872H86.1687V36.7004L86.7544 37.2862L88.1687 35.872ZM89.3567 37.06L87.9424 38.4742L88.5282 39.06H89.3567V37.06ZM98.8967 37.06L100.311 35.6458L99.7251 35.06H98.8967V37.06ZM102.785 40.948H104.785V40.1196L104.199 39.5338L102.785 40.948ZM102.785 48.04L104.199 49.4542L104.785 48.8684V48.04H102.785ZM98.8247 52V54H99.6531L100.239 53.4142L98.8247 52ZM87.1607 52L85.7464 53.4142L86.3322 54H87.1607V52ZM85.2727 48.112V44.512H81.2727V48.112H85.2727ZM83.2727 46.512H88.0967V42.512H83.2727V46.512ZM86.0967 44.512V46.636H90.0967V44.512H86.0967ZM86.6824 48.0502L87.8704 49.2382L90.6989 46.4098L89.5109 45.2218L86.6824 48.0502ZM89.2847 49.824H96.7367V45.824H89.2847V49.824ZM98.1509 49.2382L99.3749 48.0142L96.5464 45.1858L95.3224 46.4098L98.1509 49.2382ZM99.9607 46.6V42.424H95.9607V46.6H99.9607ZM99.3749 41.0098L98.1869 39.8218L95.3584 42.6502L96.5464 43.8382L99.3749 41.0098ZM96.7727 39.236H87.2327V43.236H96.7727V39.236ZM88.6469 39.8218L84.7589 35.9338L81.9304 38.7622L85.8184 42.6502L88.6469 39.8218ZM85.3447 37.348V30.688H81.3447V37.348H85.3447ZM84.7589 32.1022L88.6469 28.2142L85.8184 25.3858L81.9304 29.2738L84.7589 32.1022ZM87.2327 28.8H98.6087V24.8H87.2327V28.8ZM97.1944 28.2142L101.082 32.1022L103.911 29.2738L100.023 25.3858L97.1944 28.2142ZM100.497 30.688V34.324H104.497V30.688H100.497ZM102.497 32.324H97.6727V36.324H102.497V32.324ZM99.6727 34.324V32.164H95.6727V34.324H99.6727ZM99.0869 30.7498L97.8989 29.5618L95.0704 32.3902L96.2584 33.5782L99.0869 30.7498ZM96.4847 28.976H89.3567V32.976H96.4847V28.976ZM87.9424 29.5618L86.7544 30.7498L89.5829 33.5782L90.7709 32.3902L87.9424 29.5618ZM86.1687 32.164V35.872H90.1687V32.164H86.1687ZM86.7544 37.2862L87.9424 38.4742L90.7709 35.6458L89.5829 34.4578L86.7544 37.2862ZM89.3567 39.06H98.8967V35.06H89.3567V39.06ZM97.4824 38.4742L101.37 42.3622L104.199 39.5338L100.311 35.6458L97.4824 38.4742ZM100.785 40.948V48.04H104.785V40.948H100.785ZM101.37 46.6258L97.4104 50.5858L100.239 53.4142L104.199 49.4542L101.37 46.6258ZM98.8247 50H87.1607V54H98.8247V50ZM88.5749 50.5858L84.6869 46.6978L81.8584 49.5262L85.7464 53.4142L88.5749 50.5858Z" fill="black" mask="url(#path-1-outside-1_147_63)"/>
</g>
<g filter="url(#filter1_d_147_63)">
<path d="M123.064 30.94H115.54V26.8H135.484V30.94H127.96V52H123.064V30.94ZM148.352 26.8H153.248V52H148.352V26.8ZM167.93 26.8H172.466L179.954 43.072H180.026L187.55 26.8H192.086V52H187.37V36.664H187.298L181.502 48.472H178.478L172.718 36.664H172.646V52H167.93V26.8ZM206.207 47.86V30.94L210.347 26.8H223.307L227.447 30.94V47.86L223.307 52H210.347L206.207 47.86ZM220.715 47.824L222.551 45.988V32.812L220.715 30.976H212.939L211.103 32.812V45.988L212.939 47.824H220.715ZM241.582 26.8H245.974L257.206 43.9H257.278V26.8H261.994V52H257.602L246.37 34.936H246.298V52H241.582V26.8Z" fill="black"/>
</g>
<g filter="url(#filter2_d_147_63)">
<mask id="path-4-outside-2_147_63" maskUnits="userSpaceOnUse" x="277" y="24" width="75" height="30" fill="black">
<rect fill="white" x="277" y="24" width="75" height="30"/>
<path d="M279.52 26.8H284.416V52H279.52V26.8ZM306.154 26.8H310.618L319.834 52H314.866L312.814 46.42H303.958L301.906 52H296.938L306.154 26.8ZM311.734 42.388L308.386 32.812H308.314L305.074 42.388H311.734ZM332.18 26.8H337.076V47.86H349.676V52H332.18V26.8Z"/>
</mask>
<path d="M279.52 26.8V24.8H277.52V26.8H279.52ZM284.416 26.8H286.416V24.8H284.416V26.8ZM284.416 52V54H286.416V52H284.416ZM279.52 52H277.52V54H279.52V52ZM279.52 28.8H284.416V24.8H279.52V28.8ZM282.416 26.8V52H286.416V26.8H282.416ZM284.416 50H279.52V54H284.416V50ZM281.52 52V26.8H277.52V52H281.52ZM306.154 26.8V24.8H304.756L304.275 26.1131L306.154 26.8ZM310.618 26.8L312.496 26.1131L312.016 24.8H310.618V26.8ZM319.834 52V54H322.695L321.712 51.3131L319.834 52ZM314.866 52L312.989 52.6903L313.47 54H314.866V52ZM312.814 46.42L314.691 45.7297L314.209 44.42H312.814V46.42ZM303.958 46.42V44.42H302.562L302.081 45.7297L303.958 46.42ZM301.906 52V54H303.301L303.783 52.6903L301.906 52ZM296.938 52L295.059 51.3131L294.077 54H296.938V52ZM311.734 42.388V44.388H314.552L313.622 41.7279L311.734 42.388ZM308.386 32.812L310.274 32.1519L309.805 30.812H308.386V32.812ZM308.314 32.812V30.812H306.879L306.419 32.171L308.314 32.812ZM305.074 42.388L303.179 41.747L302.286 44.388H305.074V42.388ZM306.154 28.8H310.618V24.8H306.154V28.8ZM308.739 27.4869L317.955 52.6869L321.712 51.3131L312.496 26.1131L308.739 27.4869ZM319.834 50H314.866V54H319.834V50ZM316.743 51.3097L314.691 45.7297L310.937 47.1103L312.989 52.6903L316.743 51.3097ZM312.814 44.42H303.958V48.42H312.814V44.42ZM302.081 45.7297L300.029 51.3097L303.783 52.6903L305.835 47.1103L302.081 45.7297ZM301.906 50H296.938V54H301.906V50ZM298.816 52.6869L308.032 27.4869L304.275 26.1131L295.059 51.3131L298.816 52.6869ZM313.622 41.7279L310.274 32.1519L306.498 33.4721L309.846 43.0481L313.622 41.7279ZM308.386 30.812H308.314V34.812H308.386V30.812ZM306.419 32.171L303.179 41.747L306.968 43.029L310.208 33.453L306.419 32.171ZM305.074 44.388H311.734V40.388H305.074V44.388ZM332.18 26.8V24.8H330.18V26.8H332.18ZM337.076 26.8H339.076V24.8H337.076V26.8ZM337.076 47.86H335.076V49.86H337.076V47.86ZM349.676 47.86H351.676V45.86H349.676V47.86ZM349.676 52V54H351.676V52H349.676ZM332.18 52H330.18V54H332.18V52ZM332.18 28.8H337.076V24.8H332.18V28.8ZM335.076 26.8V47.86H339.076V26.8H335.076ZM337.076 49.86H349.676V45.86H337.076V49.86ZM347.676 47.86V52H351.676V47.86H347.676ZM349.676 50H332.18V54H349.676V50ZM334.18 52V26.8H330.18V52H334.18Z" fill="black" mask="url(#path-4-outside-2_147_63)"/>
</g>
<path d="M345 2H362C363.657 2 365 3.34315 365 5V22" stroke="black" stroke-width="3"/>
<path d="M22 81H5C3.34315 81 2 79.6569 2 78L2 61" stroke="black" stroke-width="3"/>
<defs>
<filter id="filter0_d_147_63" x="9.53998" y="26.8" width="103.245" height="45.2" filterUnits="userSpaceOnUse" color-interpolation-filters="sRGB">
<feFlood flood-opacity="0" result="BackgroundImageFix"/>
<feColorMatrix in="SourceAlpha" type="matrix" values="0 0 0 0 0 0 0 0 0 0 0 0 0 0 0 0 0 0 127 0" result="hardAlpha"/>
<feOffset dy="10"/>
<feGaussianBlur stdDeviation="5"/>
<feComposite in2="hardAlpha" operator="out"/>
<feColorMatrix type="matrix" values="0 0 0 0 0.135833 0 0 0 0 0.134361 0 0 0 0 0.134361 0 0 0 0.48 0"/>
<feBlend mode="normal" in2="BackgroundImageFix" result="effect1_dropShadow_147_63"/>
<feBlend mode="normal" in="SourceGraphic" in2="effect1_dropShadow_147_63" result="shape"/>
</filter>
<filter id="filter1_d_147_63" x="105.54" y="26.8" width="166.454" height="45.2" filterUnits="userSpaceOnUse" color-interpolation-filters="sRGB">
<feFlood flood-opacity="0" result="BackgroundImageFix"/>
<feColorMatrix in="SourceAlpha" type="matrix" values="0 0 0 0 0 0 0 0 0 0 0 0 0 0 0 0 0 0 127 0" result="hardAlpha"/>
<feOffset dy="10"/>
<feGaussianBlur stdDeviation="5"/>
<feComposite in2="hardAlpha" operator="out"/>
<feColorMatrix type="matrix" values="0 0 0 0 0.135833 0 0 0 0 0.134361 0 0 0 0 0.134361 0 0 0 0.48 0"/>
<feBlend mode="normal" in2="BackgroundImageFix" result="effect1_dropShadow_147_63"/>
<feBlend mode="normal" in="SourceGraphic" in2="effect1_dropShadow_147_63" result="shape"/>
</filter>
<filter id="filter2_d_147_63" x="269.52" y="26.8" width="90.1558" height="45.2" filterUnits="userSpaceOnUse" color-interpolation-filters="sRGB">
<feFlood flood-opacity="0" result="BackgroundImageFix"/>
<feColorMatrix in="SourceAlpha" type="matrix" values="0 0 0 0 0 0 0 0 0 0 0 0 0 0 0 0 0 0 127 0" result="hardAlpha"/>
<feOffset dy="10"/>
<feGaussianBlur stdDeviation="5"/>
<feComposite in2="hardAlpha" operator="out"/>
<feColorMatrix type="matrix" values="0 0 0 0 0.135833 0 0 0 0 0.134361 0 0 0 0 0.134361 0 0 0 0.48 0"/>
<feBlend mode="normal" in2="BackgroundImageFix" result="effect1_dropShadow_147_63"/>
<feBlend mode="normal" in="SourceGraphic" in2="effect1_dropShadow_147_63" result="shape"/>
</filter>
</defs>
</svg>
