<svg width="357" height="359" viewBox="0 0 357 359" fill="none" xmlns="http://www.w3.org/2000/svg">
<path d="M340.192 255.523H276.632C292.761 234.469 302.475 208.159 302.475 179.5C302.475 150.841 292.73 124.469 276.57 103.415H340.162C350.925 126.509 357 152.294 357 179.5C357 206.706 350.955 232.429 340.192 255.523ZM178.469 255.523C136.681 255.523 102.819 221.484 102.819 179.469C102.819 137.454 136.681 103.415 178.469 103.415C220.257 103.415 254.119 137.485 254.119 179.469C254.119 221.453 220.257 255.523 178.469 255.523ZM54.4012 179.5C54.4012 248.382 109.913 304.247 178.438 304.247C196.819 304.247 214.212 300.104 229.91 292.901V351.395C213.626 356.31 196.356 359 178.469 359C79.9056 359 0 278.649 0 179.5C0 80.3514 79.9056 0 178.5 0C196.387 0 213.626 2.68972 229.941 7.60541V66.099C214.243 58.8955 196.85 54.7528 178.469 54.7528C109.974 54.7528 54.432 110.588 54.432 179.5H54.4012Z" fill="#000000"/>
</svg>
